<svg xmlns="http://www.w3.org/2000/svg" xmlns:xlink="http://www.w3.org/1999/xlink" viewBox="0 0 401 201">
  <defs>
    <style>
      .cls-1 {
        stroke: #fff;
        stroke-miterlimit: 10;
        fill: url(#linear-gradient);
      }

      .cls-2 {
        fill: #231f20;
      }
    </style>
    <linearGradient id="linear-gradient" x1="200.5" y1="21.92" x2="200.5" y2="221.92" gradientUnits="userSpaceOnUse">
      <stop offset="0" stop-color="#2484c6"/>
      <stop offset="0.44" stop-color="#2484c6" stop-opacity="0.53"/>
      <stop offset="0.82" stop-color="#2484c6" stop-opacity="0.15"/>
      <stop offset="1" stop-color="#2484c6" stop-opacity="0"/>
    </linearGradient>
  </defs>
  <g id="Background">
    <rect class="cls-1" x="0.5" y="0.5" width="400" height="200"/>
  </g>
  <g id="S">
    <path class="cls-2" d="M48.41,105.31A11.89,11.89,0,0,1,47,111.17a10,10,0,0,1-4.21,4.07,13.73,13.73,0,0,1-6.57,1.48,13,13,0,0,1-7.52-2,10.84,10.84,0,0,1-3.41-3.86,9.79,9.79,0,0,1-1.32-4.7,3.47,3.47,0,0,1,.79-2.27,2.51,2.51,0,0,1,2-.94,2.19,2.19,0,0,1,1.67.73,6.11,6.11,0,0,1,1.16,2.19,16,16,0,0,0,1.27,2.87,5.55,5.55,0,0,0,1.92,1.9,6.24,6.24,0,0,0,3.26.75,6.62,6.62,0,0,0,4.5-1.51,4.78,4.78,0,0,0,1.73-3.77,4.37,4.37,0,0,0-.93-2.9,5.89,5.89,0,0,0-2.41-1.71,37.58,37.58,0,0,0-4-1.25,26.55,26.55,0,0,1-5.56-2.12,9.5,9.5,0,0,1-3.55-3.31,9.72,9.72,0,0,1-1.31-5.22,10,10,0,0,1,1.39-5.27,9,9,0,0,1,4-3.55,14.42,14.42,0,0,1,6.17-1.24,13.24,13.24,0,0,1,4.91.83,9.94,9.94,0,0,1,3.43,2.18,9,9,0,0,1,2,2.86,7.46,7.46,0,0,1,.63,2.92,3.83,3.83,0,0,1-.78,2.34,2.4,2.4,0,0,1-2,1,2.07,2.07,0,0,1-1.62-.62,8.2,8.2,0,0,1-1.21-2,9.22,9.22,0,0,0-2-3.18,5.27,5.27,0,0,0-3.78-1.14,5.82,5.82,0,0,0-3.89,1.24,3.76,3.76,0,0,0-1.48,3,3.32,3.32,0,0,0,.5,1.86,4.38,4.38,0,0,0,1.39,1.35A8.71,8.71,0,0,0,34,93c.6.21,1.6.52,3,.93a41.4,41.4,0,0,1,4.72,1.57,13.94,13.94,0,0,1,3.59,2.08,8.54,8.54,0,0,1,2.31,3.11A11.39,11.39,0,0,1,48.41,105.31Z" transform="translate(0.5 0.5)"/>
  </g>
  <g id="M">
    <path class="cls-2" d="M64.09,110.68,59.16,87.77v24.82a5,5,0,0,1-.79,3.1,2.61,2.61,0,0,1-4.15,0,5,5,0,0,1-.8-3.11V84.14c0-1.57.35-2.63,1.06-3.18a4.43,4.43,0,0,1,2.83-.82h1.93a6.5,6.5,0,0,1,2.53.36,2.32,2.32,0,0,1,1.17,1.33A23.28,23.28,0,0,1,63.8,85l4.47,19.7L72.74,85a23.28,23.28,0,0,1,.86-3.12,2.35,2.35,0,0,1,1.17-1.33,6.5,6.5,0,0,1,2.53-.36h1.93a4.48,4.48,0,0,1,2.84.82q1.05.83,1.05,3.18v28.45a5.11,5.11,0,0,1-.79,3.1,2.55,2.55,0,0,1-2.11,1,2.48,2.48,0,0,1-2-1,5,5,0,0,1-.8-3.1V87.77l-4.93,22.91c-.32,1.49-.59,2.58-.79,3.28a4.65,4.65,0,0,1-1.12,1.9,3,3,0,0,1-2.27.86,3.05,3.05,0,0,1-1.85-.56,3.67,3.67,0,0,1-1.17-1.41,8.66,8.66,0,0,1-.66-1.9C64.42,112.16,64.26,111.43,64.09,110.68Z" transform="translate(0.5 0.5)"/>
  </g>
  <g id="I">
    <path class="cls-2" d="M89.77,112.28V83.94a5.34,5.34,0,0,1,.86-3.31,2.71,2.71,0,0,1,2.23-1.11,2.78,2.78,0,0,1,2.28,1.1A5.25,5.25,0,0,1,96,83.94v28.34a5.32,5.32,0,0,1-.87,3.33,2.76,2.76,0,0,1-2.28,1.11,2.71,2.71,0,0,1-2.22-1.12A5.33,5.33,0,0,1,89.77,112.28Z" transform="translate(0.5 0.5)"/>
  </g>
  <g id="L">
    <path class="cls-2" d="M109.09,83.94v26.18h12.64a2.88,2.88,0,0,1,3.13,3,3,3,0,0,1-.8,2.15,3.09,3.09,0,0,1-2.33.82h-15a3.64,3.64,0,0,1-2.93-1,5.23,5.23,0,0,1-.9-3.41V83.94a5.41,5.41,0,0,1,.85-3.31,2.7,2.7,0,0,1,2.24-1.11,2.78,2.78,0,0,1,2.28,1.1A5.25,5.25,0,0,1,109.09,83.94Z" transform="translate(0.5 0.5)"/>
  </g>
  <g id="E">
    <path class="cls-2" d="M149.24,85.76H135.19v8.83h12.93a2.8,2.8,0,0,1,2.14.75,2.73,2.73,0,0,1,.7,2,2.89,2.89,0,0,1-.69,2,2.78,2.78,0,0,1-2.15.77H135.19v10.23h14.53a2.91,2.91,0,0,1,2.22.8,3,3,0,0,1,.74,2.12,3,3,0,0,1-.74,2.08,2.91,2.91,0,0,1-2.22.79H132.78a3.64,3.64,0,0,1-2.93-1,5.23,5.23,0,0,1-.9-3.41v-27a7.09,7.09,0,0,1,.4-2.56,2.77,2.77,0,0,1,1.25-1.45,4.64,4.64,0,0,1,2.18-.45h16.46a2.87,2.87,0,0,1,2.21.77,3.2,3.2,0,0,1,0,4.07A2.87,2.87,0,0,1,149.24,85.76Z" transform="translate(0.5 0.5)"/>
  </g>
  <g id="T">
    <path class="cls-2" d="M188.38,86.15h-6.81v26.13a5.3,5.3,0,0,1-.86,3.34,2.69,2.69,0,0,1-2.22,1.1,2.74,2.74,0,0,1-2.26-1.11,5.32,5.32,0,0,1-.87-3.33V86.15h-6.8a3.16,3.16,0,0,1-2.38-.82,3,3,0,0,1-.77-2.18,3,3,0,0,1,.8-2.2,3.18,3.18,0,0,1,2.35-.81h19.82a3.16,3.16,0,0,1,2.4.83,3.39,3.39,0,0,1,0,4.36A3.22,3.22,0,0,1,188.38,86.15Z" transform="translate(0.5 0.5)"/>
  </g>
  <g id="O">
    <path class="cls-2" d="M208.24,79.52a14.6,14.6,0,0,1,8.22,2.27,14.1,14.1,0,0,1,5.2,6.46,25.22,25.22,0,0,1,1.76,9.82,27.92,27.92,0,0,1-1,7.58,17.27,17.27,0,0,1-2.9,5.91,12.78,12.78,0,0,1-4.75,3.83,15,15,0,0,1-6.44,1.33,14.81,14.81,0,0,1-6.47-1.37,12.93,12.93,0,0,1-4.77-3.84,17.24,17.24,0,0,1-2.88-6,27.82,27.82,0,0,1-1-7.53,26.77,26.77,0,0,1,1-7.6,17.06,17.06,0,0,1,3-5.89,12.87,12.87,0,0,1,4.7-3.72A14.78,14.78,0,0,1,208.24,79.52ZM217.1,98A19.32,19.32,0,0,0,216,91.18a9.35,9.35,0,0,0-3.12-4.38,7.66,7.66,0,0,0-4.65-1.49,7.35,7.35,0,0,0-3.45.83,7.65,7.65,0,0,0-2.73,2.39,11.92,11.92,0,0,0-1.81,4,21,21,0,0,0-.66,5.48,21.61,21.61,0,0,0,.66,5.55,12.21,12.21,0,0,0,1.87,4.11,8.24,8.24,0,0,0,2.77,2.44,7.39,7.39,0,0,0,3.44.81,7.51,7.51,0,0,0,4.39-1.4,9.41,9.41,0,0,0,3.2-4.32A19.18,19.18,0,0,0,217.1,98Z" transform="translate(0.5 0.5)"/>
  </g>
  <g id="D">
    <path class="cls-2" d="M232.62,80.14h8.13a19.15,19.15,0,0,1,5.43.68,9.62,9.62,0,0,1,4.12,2.58q4.8,4.81,4.81,14.62a32.54,32.54,0,0,1-.49,5.91,18.9,18.9,0,0,1-1.49,4.82,14.54,14.54,0,0,1-2.58,3.84,10.65,10.65,0,0,1-2.71,2.09,11,11,0,0,1-3.16,1.1,20,20,0,0,1-3.81.32h-8.12a4.52,4.52,0,0,1-2.57-.6,2.79,2.79,0,0,1-1.12-1.69,12.21,12.21,0,0,1-.26-2.83V84.6a5.23,5.23,0,0,1,.9-3.41A3.66,3.66,0,0,1,232.62,80.14ZM235,85.9v24.41h4.73a21.89,21.89,0,0,0,2.43-.1,6.24,6.24,0,0,0,1.83-.49,4.88,4.88,0,0,0,1.64-1.1q3.12-3.09,3.13-10.65c0-3.55-.46-6.2-1.38-8A6.43,6.43,0,0,0,244,86.63a14.27,14.27,0,0,0-4.87-.73Z" transform="translate(0.5 0.5)"/>
  </g>
  <g id="A">
    <path class="cls-2" d="M278.65,112l-1.47-4.51H264.66l-1.47,4.61a16.94,16.94,0,0,1-1.47,3.64,2.19,2.19,0,0,1-2,1,2.72,2.72,0,0,1-2.08-1,3.32,3.32,0,0,1-.9-2.28,5.85,5.85,0,0,1,.21-1.52c.14-.53.37-1.25.69-2.19l7.87-23.35c.23-.67.5-1.48.81-2.42a13.18,13.18,0,0,1,1-2.34,4.44,4.44,0,0,1,1.41-1.51,3.83,3.83,0,0,1,2.15-.58,3.87,3.87,0,0,1,2.17.58,4.54,4.54,0,0,1,1.41,1.48,10.6,10.6,0,0,1,.9,2c.25.69.56,1.62.94,2.78l8,23.21a13.13,13.13,0,0,1,.94,3.85,3.41,3.41,0,0,1-.89,2.29,2.72,2.72,0,0,1-2.15,1,2.5,2.5,0,0,1-1.26-.31,2.68,2.68,0,0,1-.88-.83,8.27,8.27,0,0,1-.77-1.62C279.08,113.23,278.84,112.59,278.65,112ZM266.3,102h9.2L270.86,87.2Z" transform="translate(0.5 0.5)"/>
  </g>
  <g id="Y">
    <path class="cls-2" d="M294,112.28V100.87l-7.52-13.62a31.7,31.7,0,0,1-1.4-2.87,5,5,0,0,1-.41-1.79,3.12,3.12,0,0,1,.83-2.16,2.7,2.7,0,0,1,2-.91,2.32,2.32,0,0,1,1.94.85,25.44,25.44,0,0,1,2,3.37l5.75,10.92,5.82-10.92.88-1.69a10.32,10.32,0,0,1,.79-1.29,3.3,3.3,0,0,1,.95-.92,2.45,2.45,0,0,1,1.28-.32,2.51,2.51,0,0,1,2,.9,3.07,3.07,0,0,1,.78,2.07,5.07,5.07,0,0,1-.39,1.92A29.25,29.25,0,0,1,308,87.06l-7.71,13.81v11.41a5.26,5.26,0,0,1-.88,3.33,2.75,2.75,0,0,1-2.24,1.11,2.72,2.72,0,0,1-2.25-1.1A5.3,5.3,0,0,1,294,112.28Z" transform="translate(0.5 0.5)"/>
  </g>
  <g id="Equals">
    <path class="cls-2" d="M337.75,101.81l-.45-21.54,6.43-.13.45,21.54Zm-10.89.23-.45-21.54,6.42-.13.46,21.54Z" transform="translate(0.5 0.5)"/>
  </g>
  <g id="D2">
    <path class="cls-2" d="M353.84,109.51l.16,8.18a19.54,19.54,0,0,1-.57,5.49,9.74,9.74,0,0,1-2.45,4.19q-4.61,4.94-14.22,5.11a31,31,0,0,1-5.8-.38,18.58,18.58,0,0,1-4.75-1.41,14.62,14.62,0,0,1-3.81-2.53,10.8,10.8,0,0,1-2.09-2.68,11.31,11.31,0,0,1-1.14-3.17,21.5,21.5,0,0,1-.39-3.82l-.15-8.18a4.61,4.61,0,0,1,.54-2.59,2.69,2.69,0,0,1,1.63-1.17,11.91,11.91,0,0,1,2.77-.31l25.83-.49a5,5,0,0,1,3.35.85A3.69,3.69,0,0,1,353.84,109.51Zm-5.6,2.54-23.9.45.09,4.76c0,1,.07,1.86.14,2.45a7,7,0,0,0,.52,1.83,5,5,0,0,0,1.11,1.63q3.09,3.09,10.49,3,5.21-.11,7.78-1.53a6.48,6.48,0,0,0,3.24-3.48,15,15,0,0,0,.61-4.92Z" transform="translate(0.5 0.5)"/>
  </g>
</svg>
